<?xml version="1.0" encoding="UTF-8"?>
<svg width="202px" height="46px" viewBox="0 0 202 46" version="1.1" xmlns="http://www.w3.org/2000/svg" xmlns:xlink="http://www.w3.org/1999/xlink">
    <!-- Generator: Sketch 49.1 (51147) - http://www.bohemiancoding.com/sketch -->
    <title>Logo White</title>
    <desc>Created with Sketch.</desc>
    <defs></defs>
    <g id="Website-V1" stroke="none" stroke-width="1" fill="none" fill-rule="evenodd">
        <g transform="translate(-101.000000, -1316.000000)" fill="#FFFFFF" id="Logo-White">
            <g transform="translate(101.000000, 1316.000000)">
                <g id="Group" transform="translate(51.401786, 13.529412)">
                    <path d="M6.18094961,18.4845336 C6.67161921,18.3079062 7.07186227,18.0670659 7.38184782,17.7616757 C7.69166435,17.4564541 7.94435159,17.0738736 8.13990954,16.6139344 C8.33529847,16.1541637 8.47203692,15.6647305 8.54944879,15.1463087 C8.62702969,14.6275499 8.66556661,14.0408703 8.66556661,13.3861016 L8.66556661,12.4810545 L7.49255695,12.4810545 L7.49255695,13.584639 C7.49255695,14.254239 7.4482733,14.8262557 7.359706,15.3006892 C7.27130772,15.7751226 7.1198644,16.2038824 6.90605212,16.5862942 C6.6919018,16.9688747 6.3839445,17.2560628 5.9818422,17.4470159 C5.57957088,17.6384747 5.07977411,17.7340355 4.48228288,17.7340355 C3.98045785,17.7340355 3.54150885,17.6698227 3.16526685,17.5408914 C2.78885582,17.4122972 2.47903929,17.2319619 2.23547922,17.0002227 C1.99208816,16.7683149 1.79653021,16.4705089 1.64897439,16.1062991 C1.50124954,15.7420892 1.39814638,15.3466999 1.33915786,14.9199627 C1.28000031,14.4933939 1.25075958,13.996882 1.25075958,13.43009 L1.25075958,5.33017124 C1.25075958,4.63866132 1.29487421,4.04810545 1.38327249,3.55884069 C1.47200881,3.06974448 1.63055104,2.62278267 1.85923721,2.21812381 C2.08792339,1.81363349 2.42005077,1.51009721 2.8552813,1.30768351 C3.29051182,1.10543835 3.83290203,1.00414723 4.48228288,1.00414723 C5.61827682,1.00414723 6.40405807,1.34442471 6.83945762,2.02497968 C7.27468815,2.70570319 7.49255695,3.74473771 7.49255695,5.14258885 L7.49255695,6.08050079 L8.66556661,6.08050079 L8.66556661,5.15354379 C8.66556661,4.34439461 8.59542266,3.63603093 8.4554728,3.02912691 C8.3151849,2.42222289 8.08835796,1.88526198 7.77482296,1.41790712 C7.46094992,0.950889335 7.02943786,0.59780299 6.47994875,0.358648087 C5.9301216,0.119493183 5.26434566,0 4.48228288,0 C3.78861838,0 3.18183096,0.0901676346 2.6617516,0.270334366 C2.14150323,0.450838173 1.71354062,0.697071657 1.37769478,1.00970897 C1.04218697,1.32251482 0.770907357,1.71436482 0.564363005,2.18509043 C0.357818653,2.65598459 0.212122064,3.15603575 0.12744226,3.68591807 C0.0424244128,4.21563186 0,4.8114124 0,5.47342822 L0,13.2317212 C0,13.8864899 0.0388749599,14.4730008 0.116286837,14.9917597 C0.193867735,15.51035 0.333817591,16.0107382 0.53681249,16.4925873 C0.739638368,16.9744364 1.00517125,17.3753875 1.33358015,17.6954404 C1.66182003,18.0153248 2.09164187,18.271165 2.62287664,18.4624552 C3.15428044,18.6535769 3.77408252,18.7493062 4.48228288,18.7493062 C5.12422678,18.7493062 5.69028,18.6609925 6.18094961,18.4845336 Z M21.0256066,17.745159 C21.3648329,17.4362295 21.6398309,17.0482559 21.8499248,16.580901 C22.0603566,16.1135462 22.2079124,15.6190568 22.2927613,15.0965901 C22.3774411,14.5741234 22.4200345,13.9857585 22.4200345,13.3308213 L22.4200345,5.30792427 C22.4200345,4.49877508 22.3443128,3.78350136 22.1932076,3.16159749 C22.0417642,2.54003069 21.7963449,1.98621603 21.4571186,1.5006591 C21.1177233,1.01510217 20.6491956,0.643813765 20.0517043,0.386119721 C19.4538751,0.128762753 18.7306318,0 17.8823125,0 C17.196254,0 16.5931851,0.0866283442 16.0729367,0.25937942 C15.5528573,0.432130495 15.1213453,0.669431485 14.7780625,0.971282389 C14.4349487,1.27296475 14.1545419,1.64981491 13.9370112,2.10216992 C13.7191424,2.55469347 13.5661779,3.04025039 13.4776106,3.55884069 C13.3892123,4.07759953 13.3449286,4.66073975 13.3449286,5.30792427 L13.3449286,13.2976194 C13.3449286,13.9525566 13.387184,14.5431125 13.4722019,15.0689499 C13.5568817,15.5951244 13.7046065,16.0934902 13.9147003,16.5643844 C14.1251322,17.03511 14.398102,17.42696 14.7339479,17.7397658 C15.0694557,18.0522346 15.502827,18.2988052 16.0342307,18.4789719 C16.5654655,18.6591386 17.1813801,18.7493062 17.8823125,18.7493062 C18.583245,18.7493062 19.1976384,18.6591386 19.7251547,18.4789719 C20.252671,18.2988052 20.6860423,18.054257 21.0256066,17.745159 Z M15.2428718,16.5753393 C15.0030302,16.1929274 14.8351918,15.7623137 14.7393565,15.2841725 C14.6433523,14.8060312 14.5955192,14.2358684 14.5955192,13.573684 L14.5955192,5.13146536 C14.5955192,4.469281 14.6433523,3.90097209 14.7393565,3.42653865 C14.8351918,2.95193667 15.0030302,2.52536792 15.2428718,2.14632678 C15.4825444,1.76745418 15.8219397,1.48262557 16.2610577,1.29116682 C16.7000067,1.09970807 17.2405377,1.00414723 17.8823125,1.00414723 C18.5242564,1.00414723 19.0647874,1.09970807 19.5037364,1.29116682 C19.9426854,1.48262557 20.2820807,1.76745418 20.5220913,2.14632678 C20.7615949,2.52536792 20.9294333,2.95193667 21.0256066,3.42653865 C21.1212728,3.90097209 21.1694439,4.469281 21.1694439,5.13146536 L21.1694439,13.573684 C21.1694439,14.2358684 21.1195826,14.8060312 21.0200289,15.2841725 C20.9204752,15.7623137 20.7524677,16.1929274 20.5165136,16.5753393 C20.2802215,16.9579197 19.9426854,17.2467932 19.5037364,17.4416227 C19.0647874,17.6366208 18.5242564,17.7340355 17.8823125,17.7340355 C17.2405377,17.7340355 16.7000067,17.6366208 16.2610577,17.4416227 C15.8219397,17.2467932 15.4825444,16.9579197 15.2428718,16.5753393 Z M28.7813301,18.5064435 L28.7813301,3.02356517 L35.0123101,18.5064435 L35.9860433,18.5064435 L35.9860433,0.209660818 L34.8906146,0.209660818 L34.8906146,15.6593373 L28.67079,0.209660818 L27.6857323,0.209660818 L27.6857323,18.5064435 L28.7813301,18.5064435 Z M48.3073774,17.7175188 C49.0487059,17.0371324 49.4197083,16.034502 49.4197083,14.7103018 C49.4197083,13.8128389 49.1778384,12.9610497 48.6946058,12.1556084 C48.2113731,11.350167 47.5452591,10.5278719 46.6969399,9.68922862 L43.3878357,6.43375567 C42.9008846,5.94095162 42.5540523,5.47545068 42.347508,5.0375899 C42.1407946,4.6000662 42.0376914,4.14198091 42.0376914,3.66383964 C42.0376914,2.77362385 42.3033933,2.10958557 42.8344591,1.6717248 C43.3656939,1.2342011 44.0777817,1.00802359 44.9705536,0.993192281 L45.0812628,0.993192281 C46.0994487,0.993192281 46.839087,1.30212177 47.3001779,1.92014927 C47.7612687,2.53800824 48.0508026,3.50929063 48.1689487,4.83349083 L49.2092764,4.59062809 C49.1058352,2.93541998 48.7000145,1.75649923 47.9919831,1.05386583 C47.2836137,0.351400968 46.2765833,0 44.9705536,0 L44.9372564,0 C43.7125261,0.00741565593 42.7367646,0.336401119 42.0099719,0.987630539 C41.2833482,1.63869142 40.9199518,2.56025521 40.9199518,3.75215336 C40.9199518,5.01011827 41.4511866,6.16864597 42.5134871,7.22841062 L45.867044,10.5610738 C46.7006584,11.3852228 47.3074458,12.1058898 47.6875753,12.7239173 C48.0673667,13.3419448 48.257516,14.026039 48.257516,14.7765371 C48.257516,16.7408433 47.2798953,17.7229121 45.3246538,17.7229121 C44.8598445,17.7229121 44.448615,17.6568453 44.0906274,17.5243747 C43.7326397,17.3919041 43.4358378,17.2137599 43.1998837,16.9892677 C42.9635916,16.7647756 42.7605967,16.4742167 42.590899,16.1174225 C42.4213704,15.7604598 42.2903787,15.3908568 42.1980929,15.0082764 C42.1059762,14.6258645 42.026705,14.1733409 41.9602796,13.6508743 L40.8756682,13.9930057 C41.1412011,17.1567941 42.6204778,18.7381828 45.3136674,18.7381828 C46.5678074,18.7381828 47.5658798,18.3980738 48.3073774,17.7175188 Z M57.4188229,18.5064435 L57.4188229,1.19172962 L61.2260336,1.19172962 L61.2260336,0.209660818 L52.2949341,0.209660818 L52.2949341,1.19172962 L56.1793877,1.19172962 L56.1793877,18.5064435 L57.4188229,18.5064435 Z M71.4278372,18.5064435 L71.4278372,17.5354982 L66.2593268,17.5354982 L66.2593268,9.49035421 L70.453935,9.49035421 L70.453935,8.53036384 L66.2593268,8.53036384 L66.2593268,1.19172962 L71.3725672,1.19172962 L71.3725672,0.209660818 L65.0198917,0.209660818 L65.0198917,18.5064435 L71.4278372,18.5064435 Z M82.9796161,18.5064435 L82.9796161,17.5354982 L77.4350327,17.5354982 L77.4350327,0.209660818 L76.1955975,0.209660818 L76.1955975,18.5064435 L82.9796161,18.5064435 Z M93.7016681,18.5064435 L93.7016681,17.5354982 L88.1569156,17.5354982 L88.1569156,0.209660818 L86.9173115,0.209660818 L86.9173115,18.5064435 L93.7016681,18.5064435 Z M101.247467,1.69953351 L103.460804,12.5363349 L99.0559332,12.5363349 L101.247467,1.69953351 Z M97.8939099,18.5064435 L98.8789676,13.4521684 L103.63777,13.4521684 L104.58953,18.5064435 L105.829134,18.5064435 L101.944681,0.209660818 L100.527942,0.209660818 L96.6766166,18.5064435 L97.8939099,18.5064435 Z M113.79529,18.5064435 L113.79529,1.19172962 L117.602331,1.19172962 L117.602331,0.209660818 L108.671232,0.209660818 L108.671232,1.19172962 L112.555686,1.19172962 L112.555686,18.5064435 L113.79529,18.5064435 Z M121.440473,18.5064435 L122.668922,18.5064435 L122.668922,0.209660818 L121.440473,0.209660818 L121.440473,18.5064435 Z M135.637609,17.745159 C135.976835,17.4362295 136.251664,17.0482559 136.461927,16.580901 C136.672359,16.1135462 136.819914,15.6190568 136.904763,15.0965901 C136.989443,14.5741234 137.031867,13.9857585 137.031867,13.3308213 L137.031867,5.30792427 C137.031867,4.49877508 136.956315,3.78350136 136.805209,3.16159749 C136.653766,2.54003069 136.408516,1.98621603 136.069121,1.5006591 C135.729725,1.01510217 135.261367,0.643813765 134.663537,0.386119721 C134.066046,0.128762753 133.342803,0 132.494483,0 C131.808425,0 131.205187,0.0866283442 130.684939,0.25937942 C130.165028,0.432130495 129.733178,0.669431485 129.390233,0.971282389 C129.04712,1.27296475 128.766544,1.64981491 128.549013,2.10216992 C128.331313,2.55469347 128.178349,3.04025039 128.089782,3.55884069 C128.001214,4.07759953 127.956931,4.66073975 127.956931,5.30792427 L127.956931,13.2976194 C127.956931,13.9525566 127.999186,14.5431125 128.084204,15.0689499 C128.168884,15.5951244 128.316608,16.0934902 128.526871,16.5643844 C128.737134,17.03511 129.010104,17.42696 129.345781,17.7397658 C129.681458,18.0522346 130.115167,18.2988052 130.646233,18.4789719 C131.177636,18.6591386 131.793551,18.7493062 132.494483,18.7493062 C133.195416,18.7493062 133.809471,18.6591386 134.337157,18.4789719 C134.864504,18.2988052 135.298213,18.054257 135.637609,17.745159 Z M129.855043,16.5753393 C129.615032,16.1929274 129.447194,15.7623137 129.351358,15.2841725 C129.255523,14.8060312 129.207521,14.2358684 129.207521,13.573684 L129.207521,5.13146536 C129.207521,4.469281 129.255523,3.90097209 129.351358,3.42653865 C129.447194,2.95193667 129.615032,2.52536792 129.855043,2.14632678 C130.094715,1.76745418 130.434111,1.48262557 130.873229,1.29116682 C131.312009,1.09970807 131.85254,1.00414723 132.494483,1.00414723 C133.136427,1.00414723 133.676789,1.09970807 134.115907,1.29116682 C134.554518,1.48262557 134.894083,1.76745418 135.133924,2.14632678 C135.373766,2.52536792 135.541604,2.95193667 135.637609,3.42653865 C135.733275,3.90097209 135.781446,4.469281 135.781446,5.13146536 L135.781446,13.573684 C135.781446,14.2358684 135.731585,14.8060312 135.632031,15.2841725 C135.532308,15.7623137 135.36447,16.1929274 135.128516,16.5753393 C134.892223,16.9579197 134.554518,17.2467932 134.115907,17.4416227 C133.676789,17.6366208 133.136427,17.7340355 132.494483,17.7340355 C131.85254,17.7340355 131.312009,17.6366208 130.873229,17.4416227 C130.434111,17.2467932 130.094715,16.9579197 129.855043,16.5753393 Z M143.393332,18.5064435 L143.393332,3.02356517 L149.624312,18.5064435 L150.598214,18.5064435 L150.598214,0.209660818 L149.502617,0.209660818 L149.502617,15.6593373 L143.282792,0.209660818 L142.297734,0.209660818 L142.297734,18.5064435 L143.393332,18.5064435 Z" id="Fill-1"></path>
                    <path d="M6.18094961,18.4845336 C6.67161921,18.3079062 7.07186227,18.0670659 7.38184782,17.7616757 C7.69166435,17.4564541 7.94435159,17.0738736 8.13990954,16.6139344 C8.33529847,16.1541637 8.47203692,15.6647305 8.54944879,15.1463087 C8.62702969,14.6275499 8.66556661,14.0408703 8.66556661,13.3861016 L8.66556661,12.4810545 L7.49255695,12.4810545 L7.49255695,13.584639 C7.49255695,14.254239 7.4482733,14.8262557 7.359706,15.3006892 C7.27130772,15.7751226 7.1198644,16.2038824 6.90605212,16.5862942 C6.6919018,16.9688747 6.3839445,17.2560628 5.9818422,17.4470159 C5.57957088,17.6384747 5.07977411,17.7340355 4.48228288,17.7340355 C3.98045785,17.7340355 3.54150885,17.6698227 3.16526685,17.5408914 C2.78885582,17.4122972 2.47903929,17.2319619 2.23547922,17.0002227 C1.99208816,16.7683149 1.79653021,16.4705089 1.64897439,16.1062991 C1.50124954,15.7420892 1.39814638,15.3466999 1.33915786,14.9199627 C1.28000031,14.4933939 1.25075958,13.996882 1.25075958,13.43009 L1.25075958,5.33017124 C1.25075958,4.63866132 1.29487421,4.04810545 1.38327249,3.55884069 C1.47200881,3.06974448 1.63055104,2.62278267 1.85923721,2.21812381 C2.08792339,1.81363349 2.42005077,1.51009721 2.8552813,1.30768351 C3.29051182,1.10543835 3.83290203,1.00414723 4.48228288,1.00414723 C5.61827682,1.00414723 6.40405807,1.34442471 6.83945762,2.02497968 C7.27468815,2.70570319 7.49255695,3.74473771 7.49255695,5.14258885 L7.49255695,6.08050079 L8.66556661,6.08050079 L8.66556661,5.15354379 C8.66556661,4.34439461 8.59542266,3.63603093 8.4554728,3.02912691 C8.3151849,2.42222289 8.08835796,1.88526198 7.77482296,1.41790712 C7.46094992,0.950889335 7.02943786,0.59780299 6.47994875,0.358648087 C5.9301216,0.119493183 5.26434566,0 4.48228288,0 C3.78861838,0 3.18183096,0.0901676346 2.6617516,0.270334366 C2.14150323,0.450838173 1.71354062,0.697071657 1.37769478,1.00970897 C1.04218697,1.32251482 0.770907357,1.71436482 0.564363005,2.18509043 C0.357818653,2.65598459 0.212122064,3.15603575 0.12744226,3.68591807 C0.0424244128,4.21563186 0,4.8114124 0,5.47342822 L0,13.2317212 C0,13.8864899 0.0388749599,14.4730008 0.116286837,14.9917597 C0.193867735,15.51035 0.333817591,16.0107382 0.53681249,16.4925873 C0.739638368,16.9744364 1.00517125,17.3753875 1.33358015,17.6954404 C1.66182003,18.0153248 2.09164187,18.271165 2.62287664,18.4624552 C3.15428044,18.6535769 3.77408252,18.7493062 4.48228288,18.7493062 C5.12422678,18.7493062 5.69028,18.6609925 6.18094961,18.4845336 Z M21.0256066,17.745159 C21.3648329,17.4362295 21.6398309,17.0482559 21.8499248,16.580901 C22.0603566,16.1135462 22.2079124,15.6190568 22.2927613,15.0965901 C22.3774411,14.5741234 22.4200345,13.9857585 22.4200345,13.3308213 L22.4200345,5.30792427 C22.4200345,4.49877508 22.3443128,3.78350136 22.1932076,3.16159749 C22.0417642,2.54003069 21.7963449,1.98621603 21.4571186,1.5006591 C21.1177233,1.01510217 20.6491956,0.643813765 20.0517043,0.386119721 C19.4538751,0.128762753 18.7306318,0 17.8823125,0 C17.196254,0 16.5931851,0.0866283442 16.0729367,0.25937942 C15.5528573,0.432130495 15.1213453,0.669431485 14.7780625,0.971282389 C14.4349487,1.27296475 14.1545419,1.64981491 13.9370112,2.10216992 C13.7191424,2.55469347 13.5661779,3.04025039 13.4776106,3.55884069 C13.3892123,4.07759953 13.3449286,4.66073975 13.3449286,5.30792427 L13.3449286,13.2976194 C13.3449286,13.9525566 13.387184,14.5431125 13.4722019,15.0689499 C13.5568817,15.5951244 13.7046065,16.0934902 13.9147003,16.5643844 C14.1251322,17.03511 14.398102,17.42696 14.7339479,17.7397658 C15.0694557,18.0522346 15.502827,18.2988052 16.0342307,18.4789719 C16.5654655,18.6591386 17.1813801,18.7493062 17.8823125,18.7493062 C18.583245,18.7493062 19.1976384,18.6591386 19.7251547,18.4789719 C20.252671,18.2988052 20.6860423,18.054257 21.0256066,17.745159 Z M15.2428718,16.5753393 C15.0030302,16.1929274 14.8351918,15.7623137 14.7393565,15.2841725 C14.6433523,14.8060312 14.5955192,14.2358684 14.5955192,13.573684 L14.5955192,5.13146536 C14.5955192,4.469281 14.6433523,3.90097209 14.7393565,3.42653865 C14.8351918,2.95193667 15.0030302,2.52536792 15.2428718,2.14632678 C15.4825444,1.76745418 15.8219397,1.48262557 16.2610577,1.29116682 C16.7000067,1.09970807 17.2405377,1.00414723 17.8823125,1.00414723 C18.5242564,1.00414723 19.0647874,1.09970807 19.5037364,1.29116682 C19.9426854,1.48262557 20.2820807,1.76745418 20.5220913,2.14632678 C20.7615949,2.52536792 20.9294333,2.95193667 21.0256066,3.42653865 C21.1212728,3.90097209 21.1694439,4.469281 21.1694439,5.13146536 L21.1694439,13.573684 C21.1694439,14.2358684 21.1195826,14.8060312 21.0200289,15.2841725 C20.9204752,15.7623137 20.7524677,16.1929274 20.5165136,16.5753393 C20.2802215,16.9579197 19.9426854,17.2467932 19.5037364,17.4416227 C19.0647874,17.6366208 18.5242564,17.7340355 17.8823125,17.7340355 C17.2405377,17.7340355 16.7000067,17.6366208 16.2610577,17.4416227 C15.8219397,17.2467932 15.4825444,16.9579197 15.2428718,16.5753393 Z M28.7813301,18.5064435 L28.7813301,3.02356517 L35.0123101,18.5064435 L35.9860433,18.5064435 L35.9860433,0.209660818 L34.8906146,0.209660818 L34.8906146,15.6593373 L28.67079,0.209660818 L27.6857323,0.209660818 L27.6857323,18.5064435 L28.7813301,18.5064435 Z M48.3073774,17.7175188 C49.0487059,17.0371324 49.4197083,16.034502 49.4197083,14.7103018 C49.4197083,13.8128389 49.1778384,12.9610497 48.6946058,12.1556084 C48.2113731,11.350167 47.5452591,10.5278719 46.6969399,9.68922862 L43.3878357,6.43375567 C42.9008846,5.94095162 42.5540523,5.47545068 42.347508,5.0375899 C42.1407946,4.6000662 42.0376914,4.14198091 42.0376914,3.66383964 C42.0376914,2.77362385 42.3033933,2.10958557 42.8344591,1.6717248 C43.3656939,1.2342011 44.0777817,1.00802359 44.9705536,0.993192281 L45.0812628,0.993192281 C46.0994487,0.993192281 46.839087,1.30212177 47.3001779,1.92014927 C47.7612687,2.53800824 48.0508026,3.50929063 48.1689487,4.83349083 L49.2092764,4.59062809 C49.1058352,2.93541998 48.7000145,1.75649923 47.9919831,1.05386583 C47.2836137,0.351400968 46.2765833,0 44.9705536,0 L44.9372564,0 C43.7125261,0.00741565593 42.7367646,0.336401119 42.0099719,0.987630539 C41.2833482,1.63869142 40.9199518,2.56025521 40.9199518,3.75215336 C40.9199518,5.01011827 41.4511866,6.16864597 42.5134871,7.22841062 L45.867044,10.5610738 C46.7006584,11.3852228 47.3074458,12.1058898 47.6875753,12.7239173 C48.0673667,13.3419448 48.257516,14.026039 48.257516,14.7765371 C48.257516,16.7408433 47.2798953,17.7229121 45.3246538,17.7229121 C44.8598445,17.7229121 44.448615,17.6568453 44.0906274,17.5243747 C43.7326397,17.3919041 43.4358378,17.2137599 43.1998837,16.9892677 C42.9635916,16.7647756 42.7605967,16.4742167 42.590899,16.1174225 C42.4213704,15.7604598 42.2903787,15.3908568 42.1980929,15.0082764 C42.1059762,14.6258645 42.026705,14.1733409 41.9602796,13.6508743 L40.8756682,13.9930057 C41.1412011,17.1567941 42.6204778,18.7381828 45.3136674,18.7381828 C46.5678074,18.7381828 47.5658798,18.3980738 48.3073774,17.7175188 Z M57.4188229,18.5064435 L57.4188229,1.19172962 L61.2260336,1.19172962 L61.2260336,0.209660818 L52.2949341,0.209660818 L52.2949341,1.19172962 L56.1793877,1.19172962 L56.1793877,18.5064435 L57.4188229,18.5064435 Z M71.4278372,18.5064435 L71.4278372,17.5354982 L66.2593268,17.5354982 L66.2593268,9.49035421 L70.453935,9.49035421 L70.453935,8.53036384 L66.2593268,8.53036384 L66.2593268,1.19172962 L71.3725672,1.19172962 L71.3725672,0.209660818 L65.0198917,0.209660818 L65.0198917,18.5064435 L71.4278372,18.5064435 Z M82.9796161,18.5064435 L82.9796161,17.5354982 L77.4350327,17.5354982 L77.4350327,0.209660818 L76.1955975,0.209660818 L76.1955975,18.5064435 L82.9796161,18.5064435 Z M93.7016681,18.5064435 L93.7016681,17.5354982 L88.1569156,17.5354982 L88.1569156,0.209660818 L86.9173115,0.209660818 L86.9173115,18.5064435 L93.7016681,18.5064435 Z M101.247467,1.69953351 L103.460804,12.5363349 L99.0559332,12.5363349 L101.247467,1.69953351 Z M97.8939099,18.5064435 L98.8789676,13.4521684 L103.63777,13.4521684 L104.58953,18.5064435 L105.829134,18.5064435 L101.944681,0.209660818 L100.527942,0.209660818 L96.6766166,18.5064435 L97.8939099,18.5064435 Z M113.79529,18.5064435 L113.79529,1.19172962 L117.602331,1.19172962 L117.602331,0.209660818 L108.671232,0.209660818 L108.671232,1.19172962 L112.555686,1.19172962 L112.555686,18.5064435 L113.79529,18.5064435 Z M121.440473,18.5064435 L122.668922,18.5064435 L122.668922,0.209660818 L121.440473,0.209660818 L121.440473,18.5064435 Z M135.637609,17.745159 C135.976835,17.4362295 136.251664,17.0482559 136.461927,16.580901 C136.672359,16.1135462 136.819914,15.6190568 136.904763,15.0965901 C136.989443,14.5741234 137.031867,13.9857585 137.031867,13.3308213 L137.031867,5.30792427 C137.031867,4.49877508 136.956315,3.78350136 136.805209,3.16159749 C136.653766,2.54003069 136.408516,1.98621603 136.069121,1.5006591 C135.729725,1.01510217 135.261367,0.643813765 134.663537,0.386119721 C134.066046,0.128762753 133.342803,0 132.494483,0 C131.808425,0 131.205187,0.0866283442 130.684939,0.25937942 C130.165028,0.432130495 129.733178,0.669431485 129.390233,0.971282389 C129.04712,1.27296475 128.766544,1.64981491 128.549013,2.10216992 C128.331313,2.55469347 128.178349,3.04025039 128.089782,3.55884069 C128.001214,4.07759953 127.956931,4.66073975 127.956931,5.30792427 L127.956931,13.2976194 C127.956931,13.9525566 127.999186,14.5431125 128.084204,15.0689499 C128.168884,15.5951244 128.316608,16.0934902 128.526871,16.5643844 C128.737134,17.03511 129.010104,17.42696 129.345781,17.7397658 C129.681458,18.0522346 130.115167,18.2988052 130.646233,18.4789719 C131.177636,18.6591386 131.793551,18.7493062 132.494483,18.7493062 C133.195416,18.7493062 133.809471,18.6591386 134.337157,18.4789719 C134.864504,18.2988052 135.298213,18.054257 135.637609,17.745159 Z M129.855043,16.5753393 C129.615032,16.1929274 129.447194,15.7623137 129.351358,15.2841725 C129.255523,14.8060312 129.207521,14.2358684 129.207521,13.573684 L129.207521,5.13146536 C129.207521,4.469281 129.255523,3.90097209 129.351358,3.42653865 C129.447194,2.95193667 129.615032,2.52536792 129.855043,2.14632678 C130.094715,1.76745418 130.434111,1.48262557 130.873229,1.29116682 C131.312009,1.09970807 131.85254,1.00414723 132.494483,1.00414723 C133.136427,1.00414723 133.676789,1.09970807 134.115907,1.29116682 C134.554518,1.48262557 134.894083,1.76745418 135.133924,2.14632678 C135.373766,2.52536792 135.541604,2.95193667 135.637609,3.42653865 C135.733275,3.90097209 135.781446,4.469281 135.781446,5.13146536 L135.781446,13.573684 C135.781446,14.2358684 135.731585,14.8060312 135.632031,15.2841725 C135.532308,15.7623137 135.36447,16.1929274 135.128516,16.5753393 C134.892223,16.9579197 134.554518,17.2467932 134.115907,17.4416227 C133.676789,17.6366208 133.136427,17.7340355 132.494483,17.7340355 C131.85254,17.7340355 131.312009,17.6366208 130.873229,17.4416227 C130.434111,17.2467932 130.094715,16.9579197 129.855043,16.5753393 Z M143.393332,18.5064435 L143.393332,3.02356517 L149.624312,18.5064435 L150.598214,18.5064435 L150.598214,0.209660818 L149.502617,0.209660818 L149.502617,15.6593373 L143.282792,0.209660818 L142.297734,0.209660818 L142.297734,18.5064435 L143.393332,18.5064435 Z" id="Fill-1"></path>
                    <path d="M6.18094961,18.4845336 C6.67161921,18.3079062 7.07186227,18.0670659 7.38184782,17.7616757 C7.69166435,17.4564541 7.94435159,17.0738736 8.13990954,16.6139344 C8.33529847,16.1541637 8.47203692,15.6647305 8.54944879,15.1463087 C8.62702969,14.6275499 8.66556661,14.0408703 8.66556661,13.3861016 L8.66556661,12.4810545 L7.49255695,12.4810545 L7.49255695,13.584639 C7.49255695,14.254239 7.4482733,14.8262557 7.359706,15.3006892 C7.27130772,15.7751226 7.1198644,16.2038824 6.90605212,16.5862942 C6.6919018,16.9688747 6.3839445,17.2560628 5.9818422,17.4470159 C5.57957088,17.6384747 5.07977411,17.7340355 4.48228288,17.7340355 C3.98045785,17.7340355 3.54150885,17.6698227 3.16526685,17.5408914 C2.78885582,17.4122972 2.47903929,17.2319619 2.23547922,17.0002227 C1.99208816,16.7683149 1.79653021,16.4705089 1.64897439,16.1062991 C1.50124954,15.7420892 1.39814638,15.3466999 1.33915786,14.9199627 C1.28000031,14.4933939 1.25075958,13.996882 1.25075958,13.43009 L1.25075958,5.33017124 C1.25075958,4.63866132 1.29487421,4.04810545 1.38327249,3.55884069 C1.47200881,3.06974448 1.63055104,2.62278267 1.85923721,2.21812381 C2.08792339,1.81363349 2.42005077,1.51009721 2.8552813,1.30768351 C3.29051182,1.10543835 3.83290203,1.00414723 4.48228288,1.00414723 C5.61827682,1.00414723 6.40405807,1.34442471 6.83945762,2.02497968 C7.27468815,2.70570319 7.49255695,3.74473771 7.49255695,5.14258885 L7.49255695,6.08050079 L8.66556661,6.08050079 L8.66556661,5.15354379 C8.66556661,4.34439461 8.59542266,3.63603093 8.4554728,3.02912691 C8.3151849,2.42222289 8.08835796,1.88526198 7.77482296,1.41790712 C7.46094992,0.950889335 7.02943786,0.59780299 6.47994875,0.358648087 C5.9301216,0.119493183 5.26434566,0 4.48228288,0 C3.78861838,0 3.18183096,0.0901676346 2.6617516,0.270334366 C2.14150323,0.450838173 1.71354062,0.697071657 1.37769478,1.00970897 C1.04218697,1.32251482 0.770907357,1.71436482 0.564363005,2.18509043 C0.357818653,2.65598459 0.212122064,3.15603575 0.12744226,3.68591807 C0.0424244128,4.21563186 0,4.8114124 0,5.47342822 L0,13.2317212 C0,13.8864899 0.0388749599,14.4730008 0.116286837,14.9917597 C0.193867735,15.51035 0.333817591,16.0107382 0.53681249,16.4925873 C0.739638368,16.9744364 1.00517125,17.3753875 1.33358015,17.6954404 C1.66182003,18.0153248 2.09164187,18.271165 2.62287664,18.4624552 C3.15428044,18.6535769 3.77408252,18.7493062 4.48228288,18.7493062 C5.12422678,18.7493062 5.69028,18.6609925 6.18094961,18.4845336 Z M21.0256066,17.745159 C21.3648329,17.4362295 21.6398309,17.0482559 21.8499248,16.580901 C22.0603566,16.1135462 22.2079124,15.6190568 22.2927613,15.0965901 C22.3774411,14.5741234 22.4200345,13.9857585 22.4200345,13.3308213 L22.4200345,5.30792427 C22.4200345,4.49877508 22.3443128,3.78350136 22.1932076,3.16159749 C22.0417642,2.54003069 21.7963449,1.98621603 21.4571186,1.5006591 C21.1177233,1.01510217 20.6491956,0.643813765 20.0517043,0.386119721 C19.4538751,0.128762753 18.7306318,0 17.8823125,0 C17.196254,0 16.5931851,0.0866283442 16.0729367,0.25937942 C15.5528573,0.432130495 15.1213453,0.669431485 14.7780625,0.971282389 C14.4349487,1.27296475 14.1545419,1.64981491 13.9370112,2.10216992 C13.7191424,2.55469347 13.5661779,3.04025039 13.4776106,3.55884069 C13.3892123,4.07759953 13.3449286,4.66073975 13.3449286,5.30792427 L13.3449286,13.2976194 C13.3449286,13.9525566 13.387184,14.5431125 13.4722019,15.0689499 C13.5568817,15.5951244 13.7046065,16.0934902 13.9147003,16.5643844 C14.1251322,17.03511 14.398102,17.42696 14.7339479,17.7397658 C15.0694557,18.0522346 15.502827,18.2988052 16.0342307,18.4789719 C16.5654655,18.6591386 17.1813801,18.7493062 17.8823125,18.7493062 C18.583245,18.7493062 19.1976384,18.6591386 19.7251547,18.4789719 C20.252671,18.2988052 20.6860423,18.054257 21.0256066,17.745159 Z M15.2428718,16.5753393 C15.0030302,16.1929274 14.8351918,15.7623137 14.7393565,15.2841725 C14.6433523,14.8060312 14.5955192,14.2358684 14.5955192,13.573684 L14.5955192,5.13146536 C14.5955192,4.469281 14.6433523,3.90097209 14.7393565,3.42653865 C14.8351918,2.95193667 15.0030302,2.52536792 15.2428718,2.14632678 C15.4825444,1.76745418 15.8219397,1.48262557 16.2610577,1.29116682 C16.7000067,1.09970807 17.2405377,1.00414723 17.8823125,1.00414723 C18.5242564,1.00414723 19.0647874,1.09970807 19.5037364,1.29116682 C19.9426854,1.48262557 20.2820807,1.76745418 20.5220913,2.14632678 C20.7615949,2.52536792 20.9294333,2.95193667 21.0256066,3.42653865 C21.1212728,3.90097209 21.1694439,4.469281 21.1694439,5.13146536 L21.1694439,13.573684 C21.1694439,14.2358684 21.1195826,14.8060312 21.0200289,15.2841725 C20.9204752,15.7623137 20.7524677,16.1929274 20.5165136,16.5753393 C20.2802215,16.9579197 19.9426854,17.2467932 19.5037364,17.4416227 C19.0647874,17.6366208 18.5242564,17.7340355 17.8823125,17.7340355 C17.2405377,17.7340355 16.7000067,17.6366208 16.2610577,17.4416227 C15.8219397,17.2467932 15.4825444,16.9579197 15.2428718,16.5753393 Z M28.7813301,18.5064435 L28.7813301,3.02356517 L35.0123101,18.5064435 L35.9860433,18.5064435 L35.9860433,0.209660818 L34.8906146,0.209660818 L34.8906146,15.6593373 L28.67079,0.209660818 L27.6857323,0.209660818 L27.6857323,18.5064435 L28.7813301,18.5064435 Z M48.3073774,17.7175188 C49.0487059,17.0371324 49.4197083,16.034502 49.4197083,14.7103018 C49.4197083,13.8128389 49.1778384,12.9610497 48.6946058,12.1556084 C48.2113731,11.350167 47.5452591,10.5278719 46.6969399,9.68922862 L43.3878357,6.43375567 C42.9008846,5.94095162 42.5540523,5.47545068 42.347508,5.0375899 C42.1407946,4.6000662 42.0376914,4.14198091 42.0376914,3.66383964 C42.0376914,2.77362385 42.3033933,2.10958557 42.8344591,1.6717248 C43.3656939,1.2342011 44.0777817,1.00802359 44.9705536,0.993192281 L45.0812628,0.993192281 C46.0994487,0.993192281 46.839087,1.30212177 47.3001779,1.92014927 C47.7612687,2.53800824 48.0508026,3.50929063 48.1689487,4.83349083 L49.2092764,4.59062809 C49.1058352,2.93541998 48.7000145,1.75649923 47.9919831,1.05386583 C47.2836137,0.351400968 46.2765833,0 44.9705536,0 L44.9372564,0 C43.7125261,0.00741565593 42.7367646,0.336401119 42.0099719,0.987630539 C41.2833482,1.63869142 40.9199518,2.56025521 40.9199518,3.75215336 C40.9199518,5.01011827 41.4511866,6.16864597 42.5134871,7.22841062 L45.867044,10.5610738 C46.7006584,11.3852228 47.3074458,12.1058898 47.6875753,12.7239173 C48.0673667,13.3419448 48.257516,14.026039 48.257516,14.7765371 C48.257516,16.7408433 47.2798953,17.7229121 45.3246538,17.7229121 C44.8598445,17.7229121 44.448615,17.6568453 44.0906274,17.5243747 C43.7326397,17.3919041 43.4358378,17.2137599 43.1998837,16.9892677 C42.9635916,16.7647756 42.7605967,16.4742167 42.590899,16.1174225 C42.4213704,15.7604598 42.2903787,15.3908568 42.1980929,15.0082764 C42.1059762,14.6258645 42.026705,14.1733409 41.9602796,13.6508743 L40.8756682,13.9930057 C41.1412011,17.1567941 42.6204778,18.7381828 45.3136674,18.7381828 C46.5678074,18.7381828 47.5658798,18.3980738 48.3073774,17.7175188 Z M57.4188229,18.5064435 L57.4188229,1.19172962 L61.2260336,1.19172962 L61.2260336,0.209660818 L52.2949341,0.209660818 L52.2949341,1.19172962 L56.1793877,1.19172962 L56.1793877,18.5064435 L57.4188229,18.5064435 Z M71.4278372,18.5064435 L71.4278372,17.5354982 L66.2593268,17.5354982 L66.2593268,9.49035421 L70.453935,9.49035421 L70.453935,8.53036384 L66.2593268,8.53036384 L66.2593268,1.19172962 L71.3725672,1.19172962 L71.3725672,0.209660818 L65.0198917,0.209660818 L65.0198917,18.5064435 L71.4278372,18.5064435 Z M82.9796161,18.5064435 L82.9796161,17.5354982 L77.4350327,17.5354982 L77.4350327,0.209660818 L76.1955975,0.209660818 L76.1955975,18.5064435 L82.9796161,18.5064435 Z M93.7016681,18.5064435 L93.7016681,17.5354982 L88.1569156,17.5354982 L88.1569156,0.209660818 L86.9173115,0.209660818 L86.9173115,18.5064435 L93.7016681,18.5064435 Z M101.247467,1.69953351 L103.460804,12.5363349 L99.0559332,12.5363349 L101.247467,1.69953351 Z M97.8939099,18.5064435 L98.8789676,13.4521684 L103.63777,13.4521684 L104.58953,18.5064435 L105.829134,18.5064435 L101.944681,0.209660818 L100.527942,0.209660818 L96.6766166,18.5064435 L97.8939099,18.5064435 Z M113.79529,18.5064435 L113.79529,1.19172962 L117.602331,1.19172962 L117.602331,0.209660818 L108.671232,0.209660818 L108.671232,1.19172962 L112.555686,1.19172962 L112.555686,18.5064435 L113.79529,18.5064435 Z M121.440473,18.5064435 L122.668922,18.5064435 L122.668922,0.209660818 L121.440473,0.209660818 L121.440473,18.5064435 Z M135.637609,17.745159 C135.976835,17.4362295 136.251664,17.0482559 136.461927,16.580901 C136.672359,16.1135462 136.819914,15.6190568 136.904763,15.0965901 C136.989443,14.5741234 137.031867,13.9857585 137.031867,13.3308213 L137.031867,5.30792427 C137.031867,4.49877508 136.956315,3.78350136 136.805209,3.16159749 C136.653766,2.54003069 136.408516,1.98621603 136.069121,1.5006591 C135.729725,1.01510217 135.261367,0.643813765 134.663537,0.386119721 C134.066046,0.128762753 133.342803,0 132.494483,0 C131.808425,0 131.205187,0.0866283442 130.684939,0.25937942 C130.165028,0.432130495 129.733178,0.669431485 129.390233,0.971282389 C129.04712,1.27296475 128.766544,1.64981491 128.549013,2.10216992 C128.331313,2.55469347 128.178349,3.04025039 128.089782,3.55884069 C128.001214,4.07759953 127.956931,4.66073975 127.956931,5.30792427 L127.956931,13.2976194 C127.956931,13.9525566 127.999186,14.5431125 128.084204,15.0689499 C128.168884,15.5951244 128.316608,16.0934902 128.526871,16.5643844 C128.737134,17.03511 129.010104,17.42696 129.345781,17.7397658 C129.681458,18.0522346 130.115167,18.2988052 130.646233,18.4789719 C131.177636,18.6591386 131.793551,18.7493062 132.494483,18.7493062 C133.195416,18.7493062 133.809471,18.6591386 134.337157,18.4789719 C134.864504,18.2988052 135.298213,18.054257 135.637609,17.745159 Z M129.855043,16.5753393 C129.615032,16.1929274 129.447194,15.7623137 129.351358,15.2841725 C129.255523,14.8060312 129.207521,14.2358684 129.207521,13.573684 L129.207521,5.13146536 C129.207521,4.469281 129.255523,3.90097209 129.351358,3.42653865 C129.447194,2.95193667 129.615032,2.52536792 129.855043,2.14632678 C130.094715,1.76745418 130.434111,1.48262557 130.873229,1.29116682 C131.312009,1.09970807 131.85254,1.00414723 132.494483,1.00414723 C133.136427,1.00414723 133.676789,1.09970807 134.115907,1.29116682 C134.554518,1.48262557 134.894083,1.76745418 135.133924,2.14632678 C135.373766,2.52536792 135.541604,2.95193667 135.637609,3.42653865 C135.733275,3.90097209 135.781446,4.469281 135.781446,5.13146536 L135.781446,13.573684 C135.781446,14.2358684 135.731585,14.8060312 135.632031,15.2841725 C135.532308,15.7623137 135.36447,16.1929274 135.128516,16.5753393 C134.892223,16.9579197 134.554518,17.2467932 134.115907,17.4416227 C133.676789,17.6366208 133.136427,17.7340355 132.494483,17.7340355 C131.85254,17.7340355 131.312009,17.6366208 130.873229,17.4416227 C130.434111,17.2467932 130.094715,16.9579197 129.855043,16.5753393 Z M143.393332,18.5064435 L143.393332,3.02356517 L149.624312,18.5064435 L150.598214,18.5064435 L150.598214,0.209660818 L149.502617,0.209660818 L149.502617,15.6593373 L143.282792,0.209660818 L142.297734,0.209660818 L142.297734,18.5064435 L143.393332,18.5064435 Z" id="Fill-1"></path>
                </g>
                <path d="M20.2783055,0 L0,11.4994411 L0,34.5004412 L20.2783055,46 L39.8867054,34.8810616 L39.8878987,34.8831794 L40.1714212,34.7195185 L40.3559018,34.6148038 L40.5572076,34.5004412 L40.5572076,34.4966762 L40.5803571,34.483381 L40.5572076,34.4442012 L40.5572076,11.4994411 L20.2783055,0 Z M20.4765087,1.02514534 L38.8260017,11.4304941 L14.4140665,11.4304941 L20.4765087,1.02514534 Z M1.25007666,11.7031054 L19.2897951,1.47341847 L7.25929876,22.1228083 L1.25007666,11.7031054 Z M27.3471573,12.2217374 L39.7544903,12.2217374 L39.7544903,33.0938519 L27.3471573,12.2217374 Z M14.1984414,12.2217374 L25.6169061,12.2217374 L14.1984414,18.6238071 L14.1984414,12.2217374 Z M0.802359248,12.5272926 L13.0785512,33.8130891 L0.802359248,33.8130891 L0.802359248,12.5272926 Z M21.1009504,15.6636749 L26.6228383,12.5677666 L32.2000943,21.9503232 L21.1009504,15.6636749 Z M7.79519933,22.791453 L13.3962015,13.1779357 L13.3962015,25.963956 L7.79519933,22.791453 Z M20.4466768,16.205603 L25.2855331,18.9464226 L18.8499533,18.9464226 L20.4466768,16.205603 Z M14.354522,19.4464648 L19.2236875,16.7164697 L15.9854926,22.2744682 L14.354522,19.4464648 Z M23.2066065,19.7374305 L26.3763074,19.7374305 L26.3763074,25.2336591 L23.2066065,19.7374305 Z M16.4458587,23.0727708 L18.3889905,19.7374305 L22.2833683,19.7374305 L24.1093203,22.9033448 L22.1579549,26.2526863 L18.279567,26.2526863 L16.4458587,23.0727708 Z M27.1785473,20.0185131 L32.7370688,23.1668964 L27.1785473,32.707584 L27.1785473,20.0185131 Z M14.1984414,20.7762241 L17.3565675,26.2526863 L14.1984414,26.2526863 L14.1984414,20.7762241 Z M24.5695671,23.7015298 L26.2073394,26.5412989 L21.3180075,29.2827067 L24.5695671,23.7015298 Z M33.2965962,23.7948318 L39.4806333,34.1982981 L21.1941453,44.5677615 L33.2965962,23.7948318 Z M8.35377215,24.0204979 L19.4720084,30.3177353 L13.8149223,33.4897677 L8.35377215,24.0204979 Z M15.302461,27.0436942 L21.6971115,27.0436942 L20.1105308,29.7668652 L15.302461,27.0436942 Z M26.3763074,27.3567795 L26.3763074,33.8130891 L14.8619032,33.8130891 L26.3763074,27.3567795 Z M1.79230159,34.60445 L26.0734537,34.60445 L20.0437073,44.9539117 L1.79230159,34.60445 Z" id="Fill-3"></path>
            </g>
        </g>
    </g>
</svg>